<mxfile host="65bd71144e">
    <diagram name="Page-1" id="x4xdTf4lcPmk02mpgIDD">
        <mxGraphModel dx="1006" dy="342" grid="1" gridSize="10" guides="1" tooltips="1" connect="1" arrows="1" fold="1" page="1" pageScale="1" pageWidth="850" pageHeight="1100" math="0" shadow="0">
            <root>
                <mxCell id="0"/>
                <mxCell id="1" parent="0"/>
                <mxCell id="cgjht4FZZwzc8xEACjgz-1" value="&lt;br&gt;&lt;b&gt;Fraction&lt;/b&gt;&lt;div&gt;&lt;br/&gt;&lt;/div&gt;" style="swimlane;fontStyle=0;align=center;verticalAlign=top;childLayout=stackLayout;horizontal=1;startSize=55;horizontalStack=0;resizeParent=1;resizeParentMax=0;resizeLast=0;collapsible=0;marginBottom=0;html=1;whiteSpace=wrap;" parent="1" vertex="1">
                    <mxGeometry x="320" y="170" width="230" height="320" as="geometry"/>
                </mxCell>
                <mxCell id="cgjht4FZZwzc8xEACjgz-3" value="- numerator: int" style="text;html=1;strokeColor=none;fillColor=none;align=left;verticalAlign=middle;spacingLeft=4;spacingRight=4;overflow=hidden;rotatable=0;points=[[0,0.5],[1,0.5]];portConstraint=eastwest;whiteSpace=wrap;" parent="cgjht4FZZwzc8xEACjgz-1" vertex="1">
                    <mxGeometry y="55" width="230" height="20" as="geometry"/>
                </mxCell>
                <mxCell id="cgjht4FZZwzc8xEACjgz-5" value="denominator: int" style="text;html=1;strokeColor=none;fillColor=none;align=left;verticalAlign=middle;spacingLeft=4;spacingRight=4;overflow=hidden;rotatable=0;points=[[0,0.5],[1,0.5]];portConstraint=eastwest;whiteSpace=wrap;" parent="cgjht4FZZwzc8xEACjgz-1" vertex="1">
                    <mxGeometry y="75" width="230" height="20" as="geometry"/>
                </mxCell>
                <mxCell id="cgjht4FZZwzc8xEACjgz-6" value="" style="line;strokeWidth=1;fillColor=none;align=left;verticalAlign=middle;spacingTop=-1;spacingLeft=3;spacingRight=3;rotatable=0;labelPosition=right;points=[];portConstraint=eastwest;" parent="cgjht4FZZwzc8xEACjgz-1" vertex="1">
                    <mxGeometry y="95" width="230" height="8" as="geometry"/>
                </mxCell>
                <mxCell id="cgjht4FZZwzc8xEACjgz-16" value="&lt;p style=&quot;margin: 0px; font-variant-numeric: normal; font-variant-east-asian: normal; font-variant-alternates: normal; font-kerning: auto; font-optical-sizing: auto; font-feature-settings: normal; font-variation-settings: normal; font-stretch: normal; line-height: normal;&quot; class=&quot;p1&quot;&gt;+ Fraction (n: int, d: int)&lt;/p&gt;&lt;p style=&quot;margin: 0px; font-variant-numeric: normal; font-variant-east-asian: normal; font-variant-alternates: normal; font-kerning: auto; font-optical-sizing: auto; font-feature-settings: normal; font-variation-settings: normal; font-stretch: normal; line-height: normal;&quot; class=&quot;p1&quot;&gt;+ Fraction (n: int)&lt;/p&gt;&lt;p style=&quot;margin: 0px; font-variant-numeric: normal; font-variant-east-asian: normal; font-variant-alternates: normal; font-kerning: auto; font-optical-sizing: auto; font-feature-settings: normal; font-variation-settings: normal; font-stretch: normal; line-height: normal;&quot; class=&quot;p1&quot;&gt;+ setNumerator(n: int): void&amp;nbsp;&lt;/p&gt;&lt;p style=&quot;margin: 0px; font-variant-numeric: normal; font-variant-east-asian: normal; font-variant-alternates: normal; font-kerning: auto; font-optical-sizing: auto; font-feature-settings: normal; font-variation-settings: normal; font-stretch: normal; line-height: normal;&quot; class=&quot;p1&quot;&gt;+ getNumerator (): int&amp;nbsp;&lt;/p&gt;&lt;p style=&quot;margin: 0px; font-variant-numeric: normal; font-variant-east-asian: normal; font-variant-alternates: normal; font-kerning: auto; font-optical-sizing: auto; font-feature-settings: normal; font-variation-settings: normal; font-stretch: normal; line-height: normal;&quot; class=&quot;p1&quot;&gt;+ setDenominator(n: int) : void&amp;nbsp;&lt;/p&gt;&lt;p style=&quot;margin: 0px; font-variant-numeric: normal; font-variant-east-asian: normal; font-variant-alternates: normal; font-kerning: auto; font-optical-sizing: auto; font-feature-settings: normal; font-variation-settings: normal; font-stretch: normal; line-height: normal;&quot; class=&quot;p1&quot;&gt;+ getDenominator() : int&lt;/p&gt;&lt;p style=&quot;margin: 0px; font-variant-numeric: normal; font-variant-east-asian: normal; font-variant-alternates: normal; font-kerning: auto; font-optical-sizing: auto; font-feature-settings: normal; font-variation-settings: normal; font-stretch: normal; line-height: normal;&quot; class=&quot;p1&quot;&gt;+ equals(Fraction f) : boolean&amp;nbsp;&lt;/p&gt;&lt;p style=&quot;margin: 0px; font-variant-numeric: normal; font-variant-east-asian: normal; font-variant-alternates: normal; font-kerning: auto; font-optical-sizing: auto; font-feature-settings: normal; font-variation-settings: normal; font-stretch: normal; line-height: normal;&quot; class=&quot;p1&quot;&gt;+ compare To (Fraction f)&lt;/p&gt;&lt;p style=&quot;margin: 0px; font-variant-numeric: normal; font-variant-east-asian: normal; font-variant-alternates: normal; font-kerning: auto; font-optical-sizing: auto; font-feature-settings: normal; font-variation-settings: normal; font-stretch: normal; line-height: normal;&quot; class=&quot;p1&quot;&gt;+ toString): String&amp;nbsp;&lt;/p&gt;&lt;p style=&quot;margin: 0px; font-variant-numeric: normal; font-variant-east-asian: normal; font-variant-alternates: normal; font-kerning: auto; font-optical-sizing: auto; font-feature-settings: normal; font-variation-settings: normal; font-stretch: normal; line-height: normal;&quot; class=&quot;p1&quot;&gt;+ add (Fraction f): void&amp;nbsp;&lt;/p&gt;&lt;p style=&quot;margin: 0px; font-variant-numeric: normal; font-variant-east-asian: normal; font-variant-alternates: normal; font-kerning: auto; font-optical-sizing: auto; font-feature-settings: normal; font-variation-settings: normal; font-stretch: normal; line-height: normal;&quot; class=&quot;p1&quot;&gt;+ subtract (Fraction f) : void&amp;nbsp;&lt;/p&gt;&lt;p style=&quot;margin: 0px; font-variant-numeric: normal; font-variant-east-asian: normal; font-variant-alternates: normal; font-kerning: auto; font-optical-sizing: auto; font-feature-settings: normal; font-variation-settings: normal; font-stretch: normal; line-height: normal;&quot; class=&quot;p1&quot;&gt;+ multiply (Fraction f) : void&amp;nbsp;&lt;/p&gt;&lt;p style=&quot;margin: 0px; font-variant-numeric: normal; font-variant-east-asian: normal; font-variant-alternates: normal; font-kerning: auto; font-optical-sizing: auto; font-feature-settings: normal; font-variation-settings: normal; font-stretch: normal; line-height: normal;&quot; class=&quot;p1&quot;&gt;+ divide (Fraction f) : void&amp;nbsp;&lt;/p&gt;&lt;p style=&quot;margin: 0px; font-variant-numeric: normal; font-variant-east-asian: normal; font-variant-alternates: normal; font-kerning: auto; font-optical-sizing: auto; font-feature-settings: normal; font-variation-settings: normal; font-stretch: normal; line-height: normal;&quot; class=&quot;p1&quot;&gt;+ void reduce (): void&amp;nbsp;&lt;/p&gt;&lt;p style=&quot;margin: 0px; font-variant-numeric: normal; font-variant-east-asian: normal; font-variant-alternates: normal; font-kerning: auto; font-optical-sizing: auto; font-feature-settings: normal; font-variation-settings: normal; font-stretch: normal; line-height: normal;&quot; class=&quot;p1&quot;&gt;+ double to Decimal(): double&lt;/p&gt;&lt;p style=&quot;margin: 0px; font-variant-numeric: normal; font-variant-east-asian: normal; font-variant-alternates: normal; font-kerning: auto; font-optical-sizing: auto; font-feature-settings: normal; font-variation-settings: normal; font-stretch: normal; line-height: normal;&quot; class=&quot;p1&quot;&gt;- gcd( a: int, b: int): int&lt;/p&gt;" style="text;html=1;strokeColor=none;fillColor=none;align=left;verticalAlign=middle;spacingLeft=4;spacingRight=4;overflow=hidden;rotatable=0;points=[[0,0.5],[1,0.5]];portConstraint=eastwest;whiteSpace=wrap;" parent="cgjht4FZZwzc8xEACjgz-1" vertex="1">
                    <mxGeometry y="103" width="230" height="217" as="geometry"/>
                </mxCell>
                <mxCell id="cgjht4FZZwzc8xEACjgz-18" value="&lt;div&gt;Complete this UML Class Diagram for the Fraction class&lt;/div&gt;&lt;div&gt;- means private&lt;/div&gt;&lt;div&gt;+ means public&lt;br&gt;&lt;/div&gt;&lt;div&gt;&lt;br&gt;&lt;/div&gt;" style="text;strokeColor=none;align=center;fillColor=none;html=1;verticalAlign=middle;whiteSpace=wrap;rounded=0;" parent="1" vertex="1">
                    <mxGeometry x="600" y="210" width="170" height="30" as="geometry"/>
                </mxCell>
            </root>
        </mxGraphModel>
    </diagram>
</mxfile>